<?xml version="1.0" ?>
<svg xmlns="http://www.w3.org/2000/svg" width="588" height="256">
	<svg id="logo_group" viewBox="0 0 720 720" preserveAspectRatio="xMinYMin meet">
		<defs>
			<linearGradient y1="0%" y2="100%" id="background_gradient">
				<stop offset="0" stop-color="#13385d"/>
				<stop offset="1" stop-color="#272b2c"/>
			</linearGradient>
			<clipPath id="land_clip_-28.0">
				<path d="M 627.498851 442.745351  L 606.442863 494.778965  L 602.503385 500.035076  L 617.487817 464.047227  L 628.224062 437.769454  z "/>
				<path d="M 209.46079 404.94769  L 206.037804 404.604689  L 205.358258 403.990427  L 209.153041 401.078053  z "/>
				<path d="M 197.039484 361.326682  L 190.946331 360.87117  L 191.149667 358.768369  L 194.771774 359.189499  z "/>
				<path d="M 158.2734 348.975707  L 157.153599 349.341857  L 154.348409 345.315085  L 160.468143 349.846071  z "/>
				<path d="M 174.342946 345.245047  L 182.931617 349.539907  L 187.538782 356.391589  L 166.486584 350.028897  L 173.787543 351.230797  z "/>
				<path d="M 156.531545 322.318965  L 159.956617 325.317874  L 169.662429 341.259275  L 158.083487 338.503726  L 150.53803 319.944956  L 141.199577 318.724654  L 150.134786 316.732607  z "/>
				<path d="M 164.159271 320.620282  L 162.897872 315.677936  L 164.52575 313.038844  L 165.319544 313.623403  z "/>
				<path d="M 167.827759 307.221041  L 164.503429 306.520575  L 164.941479 304.732373  L 168.181294 305.987706  z "/>
				<path d="M 170.186488 308.238703  L 168.52332 311.291514  L 168.69053 305.147859  z "/>
				<path d="M 562.806742 249.86476  L 562.511713 256.701393  L 559.783909 255.432712  L 560.442749 253.294301  z "/>
				<path d="M 539.232232 263.874453  L 541.334804 264.675544  L 546.383107 262.419726  L 543.508135 266.039586  z "/>
				<path d="M 512.135058 262.007094  L 514.239565 269.59093  L 504.489597 267.864568  L 503.897128 265.436992  z "/>
				<path d="M 487.954459 254.881097  L 493.23669 263.483513  L 491.125119 265.468162  L 485.339766 256.932139  z "/>
				<path d="M 487.106025 250.443729  L 487.679291 254.115687  L 483.951517 250.854776  L 484.885527 246.854622  z "/>
				<path d="M 247.226752 233.059327  L 248.951281 234.179825  L 251.592291 234.754717  L 248.224791 236.136462  L 245.61468 231.747401  z "/>
				<path d="M 257.553052 223.688775  L 253.482218 221.199168  L 252.132142 218.583122  L 256.042472 220.461735  z "/>
				<path d="M 174.533988 158.964251  L 176.484288 155.387412  L 185.027259 146.861597  L 181.969219 151.239527  z "/>
				<path d="M 275.977273 220.69138  L 272.577651 223.964517  L 281.028696 228.22199  L 278.203577 239.625191  L 261.575924 231.741673  L 279.563656 217.354224  z "/>
				<path d="M 200.255967 133.969708  L 199.884626 134.830676  L 192.084411 140.036011  L 198.109063 135.026324  z "/>
				<path d="M 422.284362 217.564385  L 413.788782 220.668219  L 412.087405 211.955813  L 418.258513 205.568444  L 421.991804 207.636432  z "/>
				<path d="M 463.570098 193.070609  L 464.405688 196.5521  L 459.332636 193.662107  L 461.578087 191.417936  z "/>
				<path d="M 235.250271 108.341501  L 235.239033 108.348148  L 235.237334 108.348092  L 235.243802 108.344796  z "/>
				<path d="M 421.85497 190.40298  L 421.197837 195.032474  L 426.005635 193.607161  L 426.215777 200.830921  L 444.319803 211.362385  L 446.479256 217.43114  L 429.984503 226.571609  L 432.961039 219.499211  L 426.926172 218.018502  L 426.502516 211.488052  L 430.034663 208.731221  L 417.339742 198.886934  L 417.183288 191.232698  z "/>
				<path d="M 257.537946 162.885993  L 255.193505 164.281648  L 255.495764 162.564816  L 257.369219 161.708079  z "/>
				<path d="M 255.812538 159.314846  L 252.314623 160.169622  L 252.172162 158.594594  L 254.777876 157.732987  z "/>
				<path d="M 262.595006 148.410546  L 261.152934 149.776157  L 261.753896 157.438375  L 252.336378 153.004253  z "/>
				<path d="M 386.210499 164.993054  L 389.400237 169.535464  L 380.377521 176.333407  L 371.269756 175.058153  L 373.16901 173.349978  L 368.418618 171.721812  L 371.785542 169.834621  L 367.441609 169.132455  z "/>
				<path d="M 279.00411 149.760188  L 277.415042 149.284149  L 278.782041 147.728303  L 282.836299 147.650062  z "/>
				<path d="M 309.219187 83.677322  L 312.602799 83.494407  L 299.149304 85.769255  L 289.350039 88.294256  L 289.380833 88.149963  L 299.500577 85.438386  L 304.179906 84.475466  z "/>
				<path d="M 267.237831 132.790869  L 265.33726 133.19963  L 265.99567 129.508556  L 270.105742 128.898564  z "/>
				<path d="M 316.646467 83.549808  L 318.107712 83.226533  L 319.027392 83.219172  L 318.137375 83.643529  z "/>
				<path d="M 314.937106 83.948162  L 316.646467 83.549808  L 318.137375 83.643529  L 314.267477 84.330207  z "/>
				<path d="M 270.521928 93.50075  L 272.066161 93.933036  L 285.689364 89.32779  L 277.641632 92.498535  L 291.629831 88.824469  L 289.719404 92.690739  L 263.975764 105.783077  L 267.508388 109.363462  L 253.199509 127.512631  L 260.460098 126.574875  L 257.464909 132.23554  L 263.678961 132.698957  L 259.249834 136.734153  L 268.045974 133.767681  L 270.902843 130.076933  L 279.531734 126.862699  L 272.585425 134.996639  L 266.231271 142.782058  L 278.392246 136.935135  L 280.283972 139.09759  L 274.10369 145.418437  L 240.275734 152.757141  L 226.775764 160.381798  L 222.298615 168.289127  L 229.523942 183.904663  L 221.316326 200.354837  L 227.878976 196.509464  L 232.125807 187.749366  L 243.767723 183.823128  L 247.564808 174.420178  L 252.85305 171.774302  L 259.757996 163.172191  L 266.657984 165.577191  L 269.663446 172.869702  L 265.461818 184.165242  L 277.039525 178.363617  L 273.282113 194.76224  L 280.23734 203.975638  L 279.818236 214.90025  L 264.594975 220.159497  L 248.243282 215.734136  L 228.490843 225.743691  L 249.330379 220.807601  L 244.364862 233.752605  L 256.902455 233.420494  L 256.890217 238.583029  L 236.281633 244.557209  L 235.976251 239.929631  L 242.515783 237.816781  L 234.774803 236.239439  L 220.600454 242.008216  L 219.444517 248.678562  L 199.919564 252.229548  L 198.658447 257.483719  L 193.7099 261.681202  L 197.024182 252.829083  L 190.678147 269.256335  L 167.515133 280.612759  L 158.436029 310.104092  L 158.016013 282.919286  L 137.110319 270.470624  L 129.462094 272.307507  L 115.927169 295.892629  L 113.409272 312.481063  L 120.48698 322.295217  L 127.565677 314.680538  L 135.639534 317.211624  L 123.566094 340.219476  L 136.636884 351.697243  L 131.711262 370.456968  L 136.741697 384.851653  L 142.758497 383.805292  L 150.664974 392.303161  L 170.060098 381.396826  L 168.133572 397.286033  L 176.231941 384.992242  L 181.556496 394.726557  L 205.94448 401.100925  L 223.757262 428.103751  L 248.97419 441.242801  L 252.876615 461.547239  L 279.824415 476.94053  L 301.70049 479.91049  L 322.963416 491.297632  L 327.310196 500.911085  L 309.253662 523.303457  L 301.558294 555.73039  L 274.207661 562.523454  L 272.017565 574.026102  L 258.97068 587.662588  L 241.78809 582.858493  L 251.689746 592.266736  L 236.414876 592.844325  L 239.075585 597.91313  L 232.032403 595.993131  L 239.82991 600.904575  L 235.271448 604.268615  L 244.473816 610.510563  L 242.886119 612.753323  L 249.225168 616.231432  L 246.789957 616.391103  L 234.214939 610.61967  L 222.833497 603.287763  L 221.569289 601.08488  L 217.321485 599.010617  L 213.82558 592.089755  L 211.755897 592.502741  L 182.318832 523.922752  L 157.7537 496.361181  L 135.936502 452.80362  L 139.303622 439.664382  L 135.616059 430.735056  L 147.805001 414.059963  L 146.247844 391.857051  L 142.384393 386.989251  L 137.496129 392.949278  L 125.933092 372.97381  L 124.187397 354.482281  L 101.464273 304.697756  L 121.342691 228.704771  L 104.347405 272.980172  L 105.8744 261.654138  L 124.263275 219.843346  L 128.75683 208.725974  L 146.875304 183.080602  L 173.754949 158.40718  L 169.144766 164.261578  L 176.139967 158.406879  L 184.760177 147.802737  L 217.281153 123.981782  L 240.442033 107.741915  L 240.055437 106.41132  L 246.185369 104.431085  L 241.88289 104.962012  L 245.605319 103.06534  L 247.026401 102.519838  L 247.227197 102.520778  L 248.008077 102.143008  z "/>
				<path d="M 278.522589 114.198908  L 272.754945 119.958127  L 279.33654 117.427708  L 279.763726 118.473906  L 266.133962 128.29262  L 257.426969 122.155233  L 263.62778 117.03273  L 265.946281 119.555292  L 271.056597 113.37164  z "/>
				<path d="M 281.960927 118.97667  L 278.65757 119.641037  L 281.418763 117.611644  L 282.729408 118.202325  z "/>
				<path d="M 298.925723 133.243992  L 294.711872 132.796317  L 295.683259 130.742865  L 299.299095 131.163448  z "/>
				<path d="M 290.471375 128.566739  L 296.077982 129.126559  L 291.049019 133.911375  L 297.920794 139.025155  L 297.148542 148.057403  L 293.29646 148.643514  L 298.436624 157.468982  L 290.267805 162.6503  L 287.203136 156.573298  L 284.774357 167.666819  L 278.73297 164.298782  L 278.222589 171.875536  L 272.264041 157.826507  L 266.727605 157.451039  L 270.136576 154.049532  L 276.01243 155.931265  L 284.719181 149.614227  L 285.886503 139.67104  L 280.146939 131.303154  L 288.311984 127.25035  z "/>
				<path d="M 285.421206 120.376178  L 286.383369 122.030622  L 277.536289 126.57194  L 278.546693 121.681631  z "/>
				<path d="M 371.861296 80.684939  L 373.989178 80.814548  L 376.923394 81.12957  L 373.495086 81.157639  z "/>
				<path d="M 284.384354 126.136284  L 280.023078 126.456375  L 285.653869 123.341444  L 290.629968 125.175998  z "/>
				<path d="M 270.37447 112.948186  L 268.339853 111.996244  L 273.312006 109.080598  L 281.391814 108.170717  L 284.412907 107.020353  L 280.078604 112.967077  z "/>
				<path d="M 361.602442 81.480343  L 363.141179 81.236514  L 367.374315 81.681797  L 366.92406 81.894847  z "/>
				<path d="M 293.615002 121.476558  L 291.65268 121.979533  L 291.803254 120.108928  L 295.893357 119.666108  z "/>
				<path d="M 368.440949 82.007859  L 376.845565 81.910137  L 378.549941 82.547816  L 375.352896 82.927756  z "/>
				<path d="M 299.099149 116.234097  L 291.527148 119.355756  L 292.432602 116.384845  L 295.959185 115.12629  z "/>
				<path d="M 293.896372 112.828678  L 291.099929 115.032958  L 288.261444 109.625082  L 294.309422 109.253479  z "/>
				<path d="M 452.581543 118.256534  L 445.375992 119.757644  L 431.960731 112.772212  L 424.975806 104.987092  L 435.9206 112.38774  L 444.615623 116.879376  z "/>
				<path d="M 302.328584 117.12733  L 298.756914 122.150533  L 302.481488 127.423658  L 293.84658 124.141154  L 299.774374 116.748985  z "/>
				<path d="M 299.851962 107.650116  L 294.494165 108.438647  L 292.756145 106.260504  L 299.195603 106.587501  z "/>
				<path d="M 618.439781 249.526296  L 613.272855 241.2291  L 612.528364 255.393241  L 609.122405 251.148044  L 604.493246 256.499917  L 597.99472 249.368658  L 596.368075 253.527249  L 612.833006 272.24977  L 610.711786 254.44873  L 615.415203 262.588575  L 620.007604 265.520021  L 626.785308 295.50535  L 620.232011 337.234497  L 614.072899 319.945117  L 577.956643 275.773034  L 579.813989 285.401571  L 572.15073 277.892887  L 602.506537 320.342511  L 619.923047 342.690561  L 623.958446 345.201776  L 630.128964 326.24381  L 631.37936 332.598863  L 631.849082 367.82048  L 618.417681 423.389472  L 613.603237 464.034051  L 595.357277 494.788788  L 590.678545 508.709778  L 580.68653 520.903897  L 573.977814 532.30583  L 548.234493 558.317485  L 528.519721 567.885655  L 531.135809 520.300907  L 543.777395 488.543242  L 528.437897 452.644505  L 530.480861 429.877605  L 516.426637 431.332009  L 509.494835 423.628891  L 451.219157 441.288489  L 414.277384 410.254065  L 409.91766 363.103898  L 445.754424 290.893894  L 496.138083 271.829462  L 501.847679 272.358056  L 505.003744 287.268605  L 537.906949 293.775781  L 539.796597 279.14961  L 572.484846 271.070188  L 563.086433 243.611647  L 546.255784 254.861905  L 536.045752 244.787074  L 543.65094 225.353195  L 554.584532 223.361813  L 556.147544 214.990488  L 538.994375 208.978184  L 535.850534 198.580963  L 533.160032 207.160813  L 538.899852 209.887812  L 537.348789 215.726765  L 532.022659 213.696636  L 531.119898 209.833057  L 525.257206 210.830352  L 531.034111 230.148715  L 537.480367 235.018714  L 525.922446 245.560008  L 535.561144 255.01925  L 534.631784 262.252909  L 514.874721 242.725889  L 489.151967 231.983252  L 491.430402 239.418179  L 515.845341 250.466326  L 511.011641 250.965669  L 514.267953 262.484149  L 507.967155 254.15298  L 480.691338 241.411269  L 466.119748 251.506842  L 458.368294 284.249855  L 433.630168 287.28635  L 425.604142 259.039779  L 450.604119 250.306563  L 448.085221 241.419168  L 433.767757 231.713889  L 442.579469 230.303506  L 439.808794 225.665657  L 458.55625 204.206922  L 450.939128 190.187786  L 453.642933 186.610345  L 457.382352 195.674313  L 463.879419 200.396701  L 480.942584 192.15019  L 475.327941 179.920983  L 480.823418 179.22204  L 472.496953 172.505466  L 477.996036 165.245213  L 464.31889 168.902176  L 456.513082 160.798761  L 455.024119 152.438547  L 448.817135 152.63589  L 452.399102 164.575113  L 455.578062 169.690729  L 462.237718 172.8149  L 468.720266 188.937571  L 464.758331 193.822969  L 448.661105 180.429074  L 441.259478 186.358452  L 431.967153 174.437543  L 432.117596 150.447618  L 432.577901 136.618646  L 460.70319 135.704899  L 464.816382 141.147805  L 457.739664 143.086423  L 472.353035 147.808029  L 467.300953 144.229133  L 468.47127 136.941555  L 457.418626 131.54298  L 460.306919 130.36628  L 467.263675 133.794844  L 460.386723 124.040545  L 464.023182 120.76561  L 456.85424 117.7254  L 464.261929 114.992514  L 451.125063 112.074603  L 442.311159 108.398534  L 441.862013 106.578244  L 448.344527 108.465689  L 461.361319 110.949765  L 471.480037 115.639885  L 471.74582 114.997823  L 463.698201 110.832914  L 447.8147 107.673952  L 440.999246 105.378111  L 448.018659 106.037261  L 443.025568 102.505422  L 435.085082 101.61129  L 430.631906 98.316726  L 425.383359 97.652066  L 404.847463 90.14741  L 402.209645 87.652828  L 411.898369 88.765448  L 393.658079 83.442385  L 392.732741 81.656854  L 378.764654 80.347396  L 378.899443 80.785335  L 376.580181 80.813526  L 329.137745 80.712746  L 329.693043 81.047617  L 321.070317 82.259357  L 312.602984 83.494403  L 309.219193 83.677321  L 309.219188 83.677322  L 330.60137 80.290717  L 360 78.75  L 389.39863 80.290717  L 418.475163 84.895987  L 446.91103 92.515355  L 474.394681 103.06534  L 500.625 116.430355  L 525.314602 132.46397  L 548.192983 150.990518  L 569.009482 171.807017  L 587.53603 194.685398  L 603.569645 219.375  L 616.93466 245.605319  z M 566.026711 207.409208  L 570.251221 209.380342  L 577.345852 221.196564  L 582.438558 216.637225  L 572.511654 206.896376  L 570.717094 200.641381  L 566.43252 197.911252  L 569.111025 202.72002  L 556.06906 193.842052  L 555.559076 187.96884  L 549.995097 182.623308  L 553.114164 198.634633  z "/>
				<path d="M 304.545407 116.715584  L 303.736306 115.771814  L 304.878767 115.208733  L 305.613946 115.98206  z "/>
				<path d="M 300.626623 110.034226  L 299.020969 109.617066  L 300.420509 108.640849  L 302.096726 109.804111  z "/>
				<path d="M 407.089064 120.660459  L 407.169122 122.245003  L 405.112992 122.291253  L 403.673529 119.974684  z "/>
				<path d="M 305.005161 109.159667  L 303.915228 108.925032  L 303.740488 108.29032  L 305.961411 108.200254  z "/>
				<path d="M 306.100569 115.068473  L 305.381714 114.181423  L 308.789413 112.790286  L 307.810202 114.576509  z "/>
				<path d="M 305.851693 113.096142  L 304.76468 111.116272  L 306.372451 111.078098  L 309.027574 109.81748  z "/>
				<path d="M 401.636927 91.142288  L 406.731476 92.728012  L 399.78036 92.351274  z "/>
				<path d="M 396.321696 118.616913  L 400.995177 119.315476  L 404.641825 125.832957  L 391.410245 120.52409  z "/>
				<path d="M 397.650187 115.398316  L 399.980331 115.535203  L 393.657923 117.53359  L 395.443271 115.551522  z "/>
				<path d="M 405.363341 107.819694  L 407.254057 109.568026  L 403.93983 109.677884  L 404.695058 107.535916  z "/>
				<path d="M 402.776121 92.800924  L 404.840815 94.316212  L 401.198606 95.633846  L 395.493532 94.633928  z "/>
				<path d="M 316.719578 115.232942  L 315.956096 116.174587  L 308.908657 116.590475  L 315.204901 111.519792  L 321.444141 111.109371  z "/>
				<path d="M 338.075922 112.775786  L 339.89997 114.71672  L 320.728788 118.726587  L 318.820703 120.830066  L 306.648905 124.310958  L 302.188657 120.320705  L 308.80953 118.050351  L 309.11589 119.887583  L 310.924496 117.273715  L 316.342162 116.373088  L 319.208342 114.218331  L 322.378669 115.189306  L 324.483097 110.366831  z "/>
				<path d="M 360.49834 114.919782  L 364.434793 116.746519  L 357.40383 118.129735  L 371.588553 119.845781  L 366.639561 123.203911  L 368.59577 123.210309  L 367.915164 127.016524  L 370.483179 131.874889  L 367.161008 133.095353  L 371.419528 139.873437  L 364.775894 146.30434  L 370.132618 151.551252  L 363.838943 149.221461  L 362.718528 153.200026  L 369.413254 153.357403  L 336.086573 168.814195  L 322.817132 188.01024  L 312.566284 183.706065  L 309.915337 172.417968  L 312.252999 159.32328  L 322.485996 151.254486  L 315.996334 151.21727  L 318.977017 147.50903  L 322.85716 149.08473  L 318.666401 144.543042  L 322.156738 142.043996  L 324.210726 132.709263  L 315.996814 128.587935  L 316.555371 125.420952  L 321.513668 125.827723  L 318.588444 122.482222  L 328.337237 121.274941  L 328.956323 119.143081  L 337.109882 116.468894  L 348.398896 118.870925  L 348.391664 116.352024  z "/>
			</clipPath>
			<radialGradient id="land_gradient">
				<stop offset="0" stop-color="#d5e488"/>
				<stop offset="1" stop-color="#aec928"/>
			</radialGradient>
			<radialGradient id="sea_gradient">
				<stop offset="0" stop-color="#20b0ea"/>
				<stop offset="1" stop-color="#156475"/>
			</radialGradient>
			<radialGradient gradientTransform="scale(1.15, 1.35), translate(-0.1, -0.3)" id="glow_gradient">
				<stop offset="0" stop-color="#0aaea7" stop-opacity="0.85882354"/>
				<stop offset="0.67322218" stop-color="#18685d" stop-opacity="0.74117649"/>
				<stop offset="1" stop-color="#b6df34"/>
			</radialGradient>
			<filter id="glow_blur">
				<feGaussianBlur stdDeviation="10"/>
			</filter>
			<clipPath id="iris_clip">
				<path d="m 350.753702,0.478708 c -26.605915,-0.154944 -45.652522,5.983272 -56.188447,13.328064 -56.021119,39.053326 -43.349270,185.136968 -25.737070,233.799126 20.784031,57.425962 52.748726,113.466146 67.834706,105.619831 19.501258,-7.376825 38.332642,-85.000586 126.229550,-137.358619 68.434380,-40.764506 121.866905,-40.938768 127.691770,-53.386646 2.897143,-8.064043 1.529410,-13.285649 -4.651020,-22.291574 C 579.752705,131.183014 540.912312,68.092779 468.961128,32.649114 420.770700,8.910145 380.907050,0.654114 350.753702,0.478708 Z M 223.742743,82.947434 c -3.121798,-0.061200 -6.670778,0.671544 -11.181132,2.076293 C 202.252133,88.234589 131.406084,106.408138 76.114598,165.233873 6.406733,239.397538 -3.019751,301.901710 4.648364,328.541652 23.761045,394.939116 163.928448,427.791636 214.756898,425.748694 274.739134,423.337903 336.878179,409.654706 334.221998,392.599656 333.368042,371.407774 266.793955,329.158778 245.122675,227.736598 228.250145,148.771800 244.599768,96.896945 234.789898,87.401297 231.062918,84.419222 227.756426,83.026476 223.742743,82.947434 Z m 401.590462,99.804168 c -61.761362,-0.171072 -143.690378,38.157624 -173.647951,62.245987 -47.136982,37.901974 -89.522165,86.217977 -77.542358,98.423748 12.906410,16.632821 91.119650,10.908893 167.114182,79.972056 59.167339,53.770932 75.842071,105.536426 89.251805,107.338824 8.416440,0.317952 12.866119,-2.620174 19.355825,-11.396909 6.489648,-8.776872 53.327887,-65.940718 64.151064,-146.671855 13.645174,-101.780590 -14.755824,-157.998017 -36.315432,-174.954060 -13.433890,-10.565294 -31.780008,-14.900796 -52.367134,-14.957791 z M 404.125423,372.242959 c -4.602593,0.185328 -7.820791,1.609193 -9.261180,4.494794 -11.524637,17.656430 17.983332,91.741140 -22.946429,186.782522 -31.866934,73.996812 -74.993126,106.167499 -72.530359,119.729347 2.304497,8.260344 6.422285,11.662769 16.613597,15.244265 10.191298,3.581496 77.981047,31.343616 156.621391,16.892568 99.144540,-18.218729 142.795771,-63.133337 151.948001,-89.281591 22.810622,-65.172226 -71.644709,-175.766962 -113.943334,-204.579346 -40.557024,-27.625982 -86.557082,-50.086066 -106.501687,-49.282560 z m -38.153491,34.458710 C 342.508234,407.609172 283.856940,452.275690 188.897040,442.596650 110.034878,434.558160 66.707922,402.674918 54.820240,409.254199 c -6.992202,4.787510 -8.898941,9.831586 -9.090014,20.821802 -0.191160,10.990382 -5.132586,85.312584 32.646634,157.112604 47.629512,90.520690 103.009802,118.978337 130.225781,119.773922 67.833202,1.982462 141.792962,-123.801264 155.594441,-173.726186 16.287062,-58.915822 22.725562,-123.408756 5.998003,-126.103039 -1.251828,-0.357624 -2.658924,-0.491904 -4.223153,-0.431640 z"/>
			</clipPath>
		</defs>
		<g clip-path="url(#iris_clip)">
			<rect height="100%" width="100%" fill="url(#background_gradient)" id="background"/>
			<circle cx="50%" cy="50%" r="40.625%" fill="url(#glow_gradient)" filter="url(#glow_blur)" stroke="#ffffff" stroke-width="2" stroke-opacity="0.797414" id="glow"/>
			<circle cx="50%" cy="50%" r="39.453125%" fill="url(#sea_gradient)" id="sea"/>
			<circle cx="50%" cy="50%" r="50%" fill="url(#land_gradient)" clip-path="url(#land_clip_-28.0)" id="land"/>
		</g>
	</svg>
	<text x="264" y="199.68" font-size="153.6pt" font-family="georgia">Iris</text>
</svg>