<?xml version="1.0" ?>
<svg height="256" width="1024" xmlns="http://www.w3.org/2000/svg">
	<svg id="logo_group" preserveAspectRatio="xMinYMin meet" viewBox="0 0 1024.0 1010.0762296188518">
		<defs>
			<clipPath id="iris_clip">
				<path d="M 66.582031,73.613283 C 62.196206,73.820182 51.16069,82.105643 33.433594,80.496096 18.711759,79.15939 10.669958,73.392913 8.4375,74.619143 7.1228015,75.508541 6.7582985,76.436912 6.703125,78.451174 6.64868,80.465549 5.5985568,94.091611 12.535156,107.18359 c 8.745259,16.50554 21.06813,20.14551 26.152344,20.24414 12.671346,0.24601 24.681745,-21.45054 27.345703,-30.62304 3.143758,-10.82453 4.457007,-22.654297 1.335938,-23.119141 -0.233298,-0.06335 -0.494721,-0.08606 -0.78711,-0.07227 z m 7.119141,-5.857422 c -0.859687,0.02602 -1.458448,0.280361 -1.722656,0.806641 -2.123362,3.215735 3.515029,16.843803 -3.970704,34.189448 -5.828231,13.50478 -13.830895,19.32496 -13.347656,21.81446 0.444722,1.5177 1.220596,2.14788 3.13086,2.82226 1.910471,0.67381 14.623496,5.87722 29.292968,3.36524 18.494166,-3.16726 25.783696,-13.69084 27.449216,-18.4668 C 118.68435,100.38386 101.63623,82.323612 93.683594,76.970705 86.058314,71.837998 77.426483,67.643118 73.701172,67.755861 Z M 114.02539,33.224611 C 103.06524,33.255401 88.961605,40.28151 83.277344,44.67969 74.333356,51.599967 66.27534,60.401955 68.525391,62.601564 c 2.420462,3.001097 17.201948,1.879418 31.484379,14.316407 11.11971,9.683149 14.21486,19.049139 16.74609,19.361328 1.58953,0.0486 2.43239,-0.488445 3.66797,-2.085938 1.23506,-1.597905 10.14187,-12.009723 12.27148,-26.654297 2.68478,-18.462878 -5.13068,-28.607634 -9.18554,-31.658203 -2.52647,-1.900653 -5.831,-2.666512 -9.48438,-2.65625 z M 39.621094,14.64258 C 39.094212,14.665 38.496575,14.789793 37.767578,15.003908 35.823484,15.574873 22.460486,18.793044 12.078125,29.396486 -1.0113962,42.764595 -0.68566506,55.540029 0.79101563,60.376955 4.4713185,72.432363 28.943765,77.081596 38.542969,76.765627 49.870882,76.392777 61.593892,73.978953 61.074219,70.884768 60.890477,67.042613 48.270811,59.312854 44.070312,40.906252 40.799857,26.575361 43.83381,17.190581 41.970703,15.458986 41.184932,14.853981 40.49923,14.605209 39.621094,14.64258 Z M 67.228516,0.08984563 C 60.427428,0.11193533 55.565192,2.1689455 53.21875,3.7949238 42.82192,10.999553 45.934544,35.571547 49.203125,44.54883 c 3.857276,10.594054 9.790034,20.931896 12.589844,19.484375 3.619302,-1.360857 7.113072,-15.680732 23.425781,-25.339844 12.700702,-7.520306 22.61812,-7.553206 23.69922,-9.849609 0.53758,-1.487663 0.28371,-2.45185 -0.86328,-4.113281 C 106.90759,23.069051 99.699016,11.431303 86.345703,4.89258 78.980393,1.2860119 72.51825,0.07266475 67.228516,0.08984563 Z" transform="scale(7.679961600191999)"/>
			</clipPath>
			<linearGradient id="background_gradient" y1="0%" y2="100%">
				<stop offset="0" stop-color="#13385d"/>
				<stop offset="0.43" stop-color="#0b3849"/>
				<stop offset="1" stop-color="#272b2c"/>
			</linearGradient>
			<clipPath id="land_clip" transform="rotate(-4.99 512.0 505.0381148094259)">
				<path d="M 887.269765 621.120215  L 884.044593 633.207235  L 857.730664 694.117321  L 852.204034 701.491034  L 858.287661 687.263137  L 873.225449 651.004269  L 882.011625 633.308569  L 888.287152 614.13961  z " stroke-linejoin="round"/>
				<path d="M 300.811004 568.094494  L 296.008952 567.613304  L 295.055628 566.751566  L 300.379267 562.665845  z " stroke-linejoin="round"/>
				<path d="M 283.385357 506.899296  L 274.837371 506.260265  L 275.122628 503.31028  L 280.204023 503.901076  z " stroke-linejoin="round"/>
				<path d="M 229.00105 489.572315  L 227.430099 490.08598  L 223.494745 484.436887  L 232.080019 490.793334  z " stroke-linejoin="round"/>
				<path d="M 251.544755 484.338632  L 263.59366 490.363822  L 270.056976 499.975935  L 253.586321 501.478269  L 240.523193 491.049818  L 250.765588 492.735944  L 247.334587 484.382412  z " stroke-linejoin="round"/>
				<path d="M 226.557431 452.176007  L 231.362408 456.383127  L 244.978534 478.747058  L 228.734625 474.881343  L 232.558469 472.504873  L 228.026869 461.627782  L 218.149226 448.845548  L 205.048463 447.133607  L 217.583523 444.338996  z " stroke-linejoin="round"/>
				<path d="M 237.258242 449.792952  L 235.488647 442.859415  L 237.77237 439.157077  L 238.885971 439.977145  z " stroke-linejoin="round"/>
				<path d="M 242.404705 430.995376  L 237.741056 430.012704  L 238.35559 427.504065  L 242.900674 429.265151  z " stroke-linejoin="round"/>
				<path d="M 245.713727 432.423038  L 243.380496 436.705776  L 243.615072 428.086943  z " stroke-linejoin="round"/>
				<path d="M 796.514264 350.531188  L 796.100372 360.122188  L 792.27358 358.342375  L 793.197856 355.342434  z " stroke-linejoin="round"/>
				<path d="M 763.441969 370.185156  L 766.391633 371.308994  L 773.473814 368.144344  L 769.440563 373.222586  z " stroke-linejoin="round"/>
				<path d="M 725.427785 367.565469  L 728.380164 378.204709  L 714.702093 375.782823  L 713.870928 372.377216  z " stroke-linejoin="round"/>
				<path d="M 691.505218 357.568524  L 698.915574 369.636713  L 695.953286 372.420944  L 687.837109 360.445897  z " stroke-linejoin="round"/>
				<path d="M 690.314964 351.343413  L 691.11919 356.494743  L 685.889557 351.920064  L 687.199865 346.308314  z " stroke-linejoin="round"/>
				<path d="M 353.792254 326.95512  L 356.211568 328.527048  L 359.916597 329.333554  L 355.192387 331.271982  L 351.530705 325.114641  z " stroke-linejoin="round"/>
				<path d="M 368.278851 313.809326  L 362.567945 310.316697  L 360.673946 306.646688  L 366.159684 309.282164  z " stroke-linejoin="round"/>
				<path d="M 251.812764 223.008349  L 254.548808 217.99046  L 266.533602 206.029734  L 262.243528 212.17146  z " stroke-linejoin="round"/>
				<path d="M 394.12589 309.60433  L 389.356615 314.19616  L 401.212449 320.168898  L 397.249135 336.166263  L 394.70884 328.572322  L 387.894075 332.875684  L 373.922473 325.106605  L 399.157168 304.922687  z " stroke-linejoin="round"/>
				<path d="M 287.897707 187.943913  L 287.376759 189.151751  L 276.433965 196.454231  L 284.885851 189.426222  z " stroke-linejoin="round"/>
				<path d="M 599.377714 305.217519  L 587.459402 309.571837  L 585.07257 297.349345  L 593.729916 288.388609  L 598.967288 291.289756  z " stroke-linejoin="round"/>
				<path d="M 657.296798 270.855601  L 658.469033 275.739729  L 651.352132 271.685404  L 654.502237 268.537094  z " stroke-linejoin="round"/>
				<path d="M 336.990645 151.99052  L 336.97488 151.999845  L 336.972495 151.999768  L 336.98157 151.995144  z " stroke-linejoin="round"/>
				<path d="M 598.775326 267.113228  L 597.853445 273.60787  L 604.598226 271.608321  L 604.893031 281.742417  L 630.290873 296.516835  L 633.320335 305.030591  L 610.180115 317.853606  L 614.355849 307.931855  L 605.889633 305.854593  L 609.281205 303.367081  L 605.295292 296.69313  L 610.250484 292.825618  L 592.440987 279.015228  L 592.221501 268.277226  z " stroke-linejoin="round"/>
				<path d="M 368.257659 228.510096  L 364.968681 230.468039  L 365.392716 228.059523  L 368.020954 226.85762  z " stroke-linejoin="round"/>
				<path d="M 365.837113 223.500193  L 360.929945 224.699344  L 360.730088 222.489763  L 364.385602 221.281029  z " stroke-linejoin="round"/>
				<path d="M 375.352126 208.202729  L 373.329067 210.118523  L 374.172146 220.867723  L 360.960465 214.647166  z " stroke-linejoin="round"/>
				<path d="M 548.77028 231.466058  L 553.245112 237.838531  L 540.587292 247.375254  L 527.810157 245.58622  L 530.474589 243.18985  L 523.810342 240.905722  L 528.533745 238.258214  L 522.439711 237.273156  z " stroke-linejoin="round"/>
				<path d="M 398.372189 210.09612  L 396.142912 209.428292  L 398.060653 207.245621  L 403.748306 207.135858  z " stroke-linejoin="round"/>
				<path d="M 440.760427 117.389547  L 445.507242 117.132938  L 426.633553 120.324286  L 412.886325 123.866569  L 414.837162 123.152993  L 427.126349 119.860115  L 433.690903 118.50925  z " stroke-linejoin="round"/>
				<path d="M 381.86547 186.290139  L 379.19919 186.863583  L 380.122862 181.685436  L 385.888815 180.829688  z " stroke-linejoin="round"/>
				<path d="M 451.180037 117.21066  L 453.229993 116.757143  L 454.520198 116.746816  L 453.271608 117.342139  z " stroke-linejoin="round"/>
				<path d="M 448.782003 117.769504  L 451.180037 117.21066  L 453.271608 117.342139  L 447.842592 118.305469  z " stroke-linejoin="round"/>
				<path d="M 387.474577 130.78608  L 389.456107 130.406233  L 383.971818 132.920445  L 388.639055 131.777121  L 395.843253 128.718381  L 407.750824 125.316496  L 396.460792 129.764683  L 416.084608 124.610395  L 413.404501 130.034323  L 377.289169 148.40135  L 382.24503 153.424213  L 362.171337 178.885386  L 370.488023 176.048898  L 372.357099 177.569823  L 368.155198 185.511077  L 376.872788 186.161197  L 370.659239 191.822108  L 382.9992 187.660493  L 387.007054 182.482803  L 399.112384 177.973606  L 389.367522 189.384578  L 383.529088 192.886126  L 389.531891 191.30962  L 380.453383 200.306615  L 397.513816 192.104062  L 400.167687 195.137735  L 399.494152 197.999759  L 391.497471 204.005149  L 379.222622 204.144211  L 344.040784 214.300496  L 325.101898 224.997003  L 318.820978 236.090065  L 328.957272 257.996846  L 320.827849 267.505256  L 317.44294 281.074525  L 326.649575 275.679914  L 332.607384 263.390516  L 348.939639 257.882461  L 354.266507 244.691216  L 361.685295 240.979361  L 371.372131 228.9116  L 381.052012 232.285535  L 385.268325 242.516078  L 377.742975 253.117201  L 379.373929 258.362407  L 395.616105 250.223403  L 390.344894 273.228763  L 400.102268 286.154088  L 399.514314 301.480047  L 378.15785 308.858159  L 355.218327 302.649893  L 327.507954 316.692133  L 356.743398 309.767374  L 349.777355 327.927708  L 360.32098 333.196081  L 367.366139 327.461795  L 367.34897 334.704231  L 338.437525 343.085311  L 338.009111 336.593357  L 347.183313 333.629274  L 336.323618 331.416447  L 316.438656 339.50937  L 314.817011 348.867089  L 287.425773 353.84871  L 285.656573 361.2197  L 278.714337 367.108281  L 283.363889 354.689788  L 274.46114 377.735311  L 241.966127 393.667052  L 229.229201 435.039961  L 228.639967 396.902842  L 199.311711 379.438817  L 188.582141 382.01575  L 169.594216 415.102933  L 166.061899 438.374575  L 168.346705 450.20131  L 175.9911 452.142692  L 185.921688 441.460183  L 197.248371 445.011002  L 180.310739 477.288342  L 198.647536 493.390313  L 191.737462 519.708025  L 198.794576 539.902092  L 207.235447 538.43417  L 218.327314 550.355691  L 229.244782 538.104015  L 245.536417 535.055372  L 242.833725 557.346081  L 254.194795 540.099322  L 261.664525 553.755434  L 295.87803 562.69793  L 292.5 567.04153  L 320.86729 600.579753  L 356.243706 619.012312  L 361.718354 647.497076  L 397.30361 661.726176  L 399.522982 669.092073  L 430.21257 673.258581  L 460.041982 689.233416  L 466.140009 702.719972  L 440.808792 734.133865  L 430.013087 779.625079  L 391.643331 789.154958  L 388.57088 805.291835  L 370.267619 824.422238  L 346.162443 817.682651  L 360.053315 830.881322  L 352.382607 834.822542  L 338.624449 831.691611  L 342.357116 838.802556  L 332.476351 836.10902  L 343.415345 842.999205  L 337.020353 847.718561  L 349.930205 856.475288  L 347.702851 859.62162  L 356.5958 864.501001  L 353.179481 864.725002  L 335.538194 856.628353  L 319.571356 846.342541  L 317.797819 843.252151  L 311.838644 840.342202  L 306.934295 830.633037  L 304.030772 831.212409  L 287.369661 810.202511  L 282.987565 794.003849  L 262.733994 735.002664  L 252.957271 719.870198  L 228.271972 696.336986  L 197.664982 635.230796  L 202.38866 616.797975  L 197.215437 604.271169  L 214.315105 580.877953  L 212.130595 549.729851  L 206.710623 542.900894  L 199.852957 551.262119  L 183.631362 523.238861  L 181.182354 497.297398  L 149.304456 427.455501  L 149.90682 412.296198  L 156.107084 393.706465  L 177.191563 320.846184  L 153.349153 382.95942  L 155.49135 367.070312  L 163.18868 342.937994  L 166.244161 340.263941  L 181.288802 308.414637  L 187.592737 292.818257  L 213.010848 256.840783  L 250.719862 222.226843  L 244.252312 230.439882  L 254.065765 222.226422  L 266.158917 207.350044  L 311.782063 173.932015  L 344.274083 151.149372  L 343.731734 149.282702  L 352.331315 146.504662  L 346.295438 147.249491  L 350.428471 145.143606  L 353.792878 143.824724  L 354.888362 143.294756  z " stroke-linejoin="round"/>
				<path d="M 397.696672 160.207782  L 397.532054 163.847751  L 389.605338 168.287295  L 398.838551 164.737411  L 399.437843 166.205106  L 380.31687 179.979619  L 368.101971 171.36958  L 376.800989 164.183303  L 380.053575 167.722165  L 387.222754 159.04722  z " stroke-linejoin="round"/>
				<path d="M 402.520261 166.910425  L 397.886035 167.842454  L 401.759667 164.995452  L 403.598349 165.82411  z " stroke-linejoin="round"/>
				<path d="M 426.319895 186.925818  L 420.408353 186.297782  L 421.771095 183.417028  L 426.843693 184.007057  z " stroke-linejoin="round"/>
				<path d="M 414.459429 180.364176  L 422.324845 181.149539  L 415.269795 187.862079  L 422.597733 187.293126  L 424.910097 195.036117  L 423.826716 207.70731  L 418.422694 208.529555  L 425.633746 220.910661  L 414.173844 228.179447  L 409.874469 219.654121  L 406.467175 235.21704  L 397.991812 230.492075  L 397.275807 241.121379  L 388.916657 221.412226  L 381.149682 220.885489  L 385.932071 216.11357  L 394.175211 218.753422  L 406.389769 209.891354  L 408.027387 195.942219  L 399.975446 184.203048  L 411.430054 178.517436  L 418.845552 178.799702  z " stroke-linejoin="round"/>
				<path d="M 407.374629 168.873772  L 408.724432 171.194764  L 403.501863 172.791845  L 396.313008 177.565705  L 397.730488 170.705171  L 400.171735 171.774239  L 403.643867 169.249111  z " stroke-linejoin="round"/>
				<path d="M 528.640019 113.191581  L 531.625189 113.373408  L 535.741553 113.815347  L 530.932035 113.854725  z " stroke-linejoin="round"/>
				<path d="M 405.920047 176.95453  L 399.801683 177.403581  L 407.701028 173.033695  L 414.681917 175.607361  z " stroke-linejoin="round"/>
				<path d="M 386.265809 158.453163  L 383.411478 157.1177  L 390.386831 153.027387  L 401.721862 151.750931  L 405.960102 150.137104  L 399.879579 158.479666  z " stroke-linejoin="round"/>
				<path d="M 514.24804 114.307442  L 516.406708 113.965377  L 522.345306 114.590058  L 521.713651 114.888942  z " stroke-linejoin="round"/>
				<path d="M 418.869571 170.417478  L 416.116663 171.123093  L 416.327899 168.498852  L 422.065839 167.877626  z " stroke-linejoin="round"/>
				<path d="M 523.841669 115.047485  L 535.632368 114.910392  L 538.023409 115.804982  L 533.538327 116.337993  z " stroke-linejoin="round"/>
				<path d="M 426.563191 163.062914  L 415.940555 167.442239  L 417.210802 163.274397  L 422.158188 161.50879  z " stroke-linejoin="round"/>
				<path d="M 419.2643 158.285508  L 415.341217 161.377857  L 406.544464 159.082431  L 408.289556 157.331958  L 411.552486 157.940236  L 411.359152 153.791236  L 419.843763 153.26992  z " stroke-linejoin="round"/>
				<path d="M 641.881133 165.900159  L 631.772583 168.006041  L 612.952533 158.206293  L 603.153495 147.284675  L 618.507768 157.666924  L 630.705874 163.968167  z " stroke-linejoin="round"/>
				<path d="M 431.093713 164.316017  L 426.083076 171.362985  L 431.30822 178.760567  L 419.194449 174.155595  L 427.510454 163.785243  z " stroke-linejoin="round"/>
				<path d="M 427.619301 151.020587  L 420.102934 152.126806  L 417.664695 149.071124  L 426.698505 149.529863  z " stroke-linejoin="round"/>
				<path d="M 874.560944 350.056361  L 867.312347 338.416361  L 866.267914 358.287002  L 861.489749 352.331485  L 862.318169 360.39537  L 854.995578 359.83954  L 845.878902 349.835213  L 843.596908 355.669233  L 866.695291 381.934751  L 868.613344 375.978885  L 863.719466 356.961963  L 870.317813 368.381219  L 876.760417 372.493697  L 886.268747 414.559624  L 877.075234 473.100763  L 868.434717 448.845774  L 821.219654 396.357383  L 817.767811 386.877482  L 820.373451 400.385198  L 809.622791 389.851388  L 843.196407 429.342757  L 852.208456 449.403272  L 877.070004 475.084717  L 876.641793 480.754986  L 882.302989 484.277929  L 890.959508 457.682108  L 892.713668 466.597507  L 893.372633 516.009339  L 874.52994 593.966169  L 867.775836 650.985785  L 842.178876 694.131102  L 835.61516 713.660632  L 821.597525 730.767562  L 812.185977 746.763146  L 776.071093 783.254473  L 748.413562 796.677502  L 752.083629 729.921637  L 769.818303 685.369327  L 764.195269 654.261485  L 748.298772 635.007576  L 751.164812 603.068265  L 745.884345 597.79193  L 731.448372 605.108625  L 721.723861 594.302046  L 684.599265 612.678307  L 639.969864 619.076408  L 588.144855 575.538721  L 580.721982 558.684447  L 589.034531 534.884076  L 582.028669 509.392523  L 632.303479 408.090289  L 652.532593 408.656069  L 702.985891 381.345108  L 710.99579 382.086665  L 715.423381 403.00443  L 761.58275 412.133241  L 764.233707 391.614425  L 795.752126 390.486616  L 810.091517 380.279935  L 796.906637 341.758797  L 773.295195 357.5416  L 758.971707 343.407784  L 769.640901 316.144314  L 784.97946 313.350636  L 787.172183 301.606641  L 763.108283 293.172078  L 758.69784 278.585987  L 754.923378 290.622518  L 762.975678 294.44818  L 760.799717 302.639552  L 753.327777 299.791517  L 752.061308 294.371365  L 743.836632 295.770454  L 751.940958 322.87187  L 760.984306 329.703912  L 744.769887 344.492121  L 758.291859 357.762337  L 756.988075 367.910318  L 733.69061 349.496442  L 729.271215 340.516181  L 693.185183 325.445512  L 696.381563 335.875849  L 730.632881 351.375114  L 723.851762 352.075635  L 728.41999 368.234722  L 719.580702 356.54706  L 681.315905 338.671923  L 660.87366 352.834837  L 649.999271 398.769475  L 634.87135 406.40188  L 615.294559 403.029325  L 604.034978 363.402671  L 639.107037 351.150986  L 635.573316 338.683004  L 615.48758 325.067627  L 627.849387 323.089023  L 623.962453 316.582661  L 635.937805 311.891392  L 640.030843 291.99372  L 650.262952 286.478553  L 639.577016 266.811335  L 643.37014 261.792602  L 648.616109 274.508294  L 657.730738 281.133256  L 681.668374 269.56436  L 682.67938 263.801358  L 673.791683 252.408206  L 681.501198 251.42767  L 669.820136 242.005099  L 677.53471 231.819808  L 658.347265 236.950101  L 647.396625 225.581953  L 645.307783 213.853546  L 636.600107 214.130395  L 641.62519 230.879735  L 646.084901 238.056349  L 655.427623 242.439197  L 664.521883 265.05743  L 658.96375 271.911075  L 636.381215 253.120999  L 625.997594 261.439226  L 612.961542 244.715578  L 613.172596 211.060504  L 613.818352 191.660066  L 617.69964 188.561725  L 653.274859 190.378185  L 659.045189 198.013948  L 649.117377 200.733603  L 669.618237 207.357467  L 662.530753 202.336693  L 668.920344 202.096533  L 660.07194 192.641939  L 664.172572 192.113069  L 648.666998 184.539496  L 652.718937 182.888723  L 662.478457 187.698599  L 652.830892 174.014453  L 657.932421 169.4201  L 653.762415 166.734902  L 647.87523 165.155038  L 658.267355 161.321119  L 654.73841 159.595488  L 649.959338 160.058234  L 639.837861 157.227628  L 627.472979 152.070531  L 626.84288 149.516876  L 635.937092 152.164742  L 654.198137 155.649611  L 668.393521 162.229305  L 668.766384 161.328566  L 657.476511 155.485683  L 635.193807 151.054027  L 625.632518 147.833229  L 635.479937 148.757939  L 631.155476 148.130525  L 627.761646 146.282571  L 628.475212 143.803181  L 617.335635 142.548818  L 611.088346 137.926928  L 608.563785 138.120926  L 603.725245 136.994487  L 574.128702 127.878527  L 574.915773 126.466327  L 571.215221 122.966719  L 584.807373 124.527596  L 559.218368 117.059957  L 557.920227 114.555066  L 553.556354 114.634916  L 538.324627 112.718049  L 538.51372 113.332426  L 535.260065 113.371974  L 468.703848 113.230592  L 466.420696 113.632062  L 469.482866 113.700377  L 457.386184 115.400307  L 445.507501 117.132932  L 440.760436 117.389546  L 440.76043 117.389547  L 470.757142 112.638534  L 512 110.477088  L 553.242858 112.638534  L 594.03385 119.099193  L 633.926063 129.788279  L 672.482428 144.588681  L 709.280514 163.338242  L 743.917153 185.831538  L 776.012859 211.822129  L 805.215986 241.025255  L 831.206576 273.120962  L 853.699873 307.757601  L 872.449434 344.555687  z M 801.031505 290.970987  L 806.958001 293.736259  L 811.378991 304.41402  L 816.910943 310.313044  L 824.055417 303.916822  L 810.129125 290.251544  L 807.611566 281.476513  L 801.600807 277.646461  L 805.358438 284.392602  L 787.062078 271.937846  L 786.34663 263.698413  L 778.541016 256.199254  L 777.236194 265.463169  L 782.916704 278.66128  z " stroke-linejoin="round"/>
				<path d="M 434.203658 163.738384  L 433.068584 162.414385  L 434.671323 161.624449  L 435.702694 162.709336  z " stroke-linejoin="round"/>
				<path d="M 428.70606 154.365216  L 426.453514 153.77999  L 428.416906 152.410471  L 430.768444 154.042393  z " stroke-linejoin="round"/>
				<path d="M 578.060478 169.272586  L 578.17279 171.495517  L 575.288279 171.560399  L 573.26888 168.310522  z " stroke-linejoin="round"/>
				<path d="M 434.848639 153.138312  L 433.31959 152.809147  L 433.074451 151.91872  L 436.190148 151.792368  z " stroke-linejoin="round"/>
				<path d="M 436.385369 161.42768  L 435.376899 160.183252  L 440.157504 158.231649  L 438.783786 160.737511  z " stroke-linejoin="round"/>
				<path d="M 436.036226 158.660728  L 434.511272 155.883202  L 436.766788 155.829647  L 440.491618 154.061148  z " stroke-linejoin="round"/>
				<path d="M 570.411764 127.862026  L 577.558824 130.086612  L 567.807217 129.558092  z " stroke-linejoin="round"/>
				<path d="M 562.955114 166.405729  L 569.511463 167.385731  L 574.627287 176.528998  L 556.06492 169.081276  z " stroke-linejoin="round"/>
				<path d="M 564.818831 161.890411  L 568.087753 162.082447  L 559.218149 164.885951  L 561.722785 162.105341  z " stroke-linejoin="round"/>
				<path d="M 575.63949 151.258487  L 578.291944 153.711192  L 573.642469 153.865311  L 574.701966 150.860378  z " stroke-linejoin="round"/>
				<path d="M 572.009921 130.188899  L 574.906446 132.314672  L 569.796851 134.16316  L 561.793296 132.76039  L 567.024834 130.49624  z " stroke-linejoin="round"/>
				<path d="M 451.282603 161.65841  L 450.211526 162.979429  L 440.32479 163.562871  L 449.157688 156.449293  L 457.910615 155.873521  z " stroke-linejoin="round"/>
				<path d="M 481.243069 158.211306  L 483.801996 160.934211  L 456.907058 166.559589  L 454.230237 169.510525  L 437.154621 174.393811  L 430.897412 168.795949  L 436.348494 167.789157  L 440.185727 165.610907  L 440.615513 168.18833  L 443.152777 164.521378  L 450.753133 163.257903  L 454.774051 160.235029  L 459.22165 161.597194  L 462.173918 154.831823  z " stroke-linejoin="round"/>
				<path d="M 512.699113 161.219083  L 518.221499 163.781784  L 508.357876 165.722274  L 528.257392 168.129687  L 521.314531 172.840752  L 524.058865 172.849728  L 523.104054 178.189405  L 526.70668 185.005126  L 522.046061 186.717295  L 525.465199 188.731468  L 524.899864 192.713436  L 528.02027 196.226158  L 520.762427 200.859476  L 523.990941 205.744015  L 518.700024 205.247967  L 526.214884 212.608774  L 517.38559 209.340349  L 515.813778 214.921812  L 525.2057 215.142594  L 478.452244 236.826674  L 465.685903 250.22301  L 459.836763 263.756491  L 445.456015 257.718236  L 441.737046 241.882349  L 445.016513 223.512024  L 459.372217 212.192446  L 450.267976 212.140236  L 454.449528 206.938007  L 459.892916 209.14853  L 454.01377 202.777071  L 458.910307 199.271199  L 461.791812 186.175655  L 450.268649 180.393912  L 451.05224 175.951003  L 458.008154 176.521656  L 453.904405 171.828307  L 467.580827 170.134632  L 468.449333 167.14388  L 479.887827 163.392308  L 495.725001 166.762078  L 495.714855 163.228353  z " stroke-linejoin="round"/>
			</clipPath>
			<radialGradient id="land_gradient">
				<stop offset="0" stop-color="#d5e488"/>
				<stop offset="1" stop-color="#aec928"/>
			</radialGradient>
			<radialGradient id="sea_gradient">
				<stop offset="0" stop-color="#20b0ea"/>
				<stop offset="1" stop-color="#156475"/>
			</radialGradient>
			<radialGradient gradientTransform="scale(1.15, 1.35), translate(-0.1, -0.3)" id="glow_gradient">
				<stop offset="0" stop-color="#0aaea7" stop-opacity="0.85882354"/>
				<stop offset="0.67322218" stop-color="#18685d" stop-opacity="0.74117649"/>
				<stop offset="1" stop-color="#b6df34"/>
			</radialGradient>
			<filter id="glow_blur">
				<feGaussianBlur stdDeviation="14"/>
			</filter>
		</defs>
		<g clip-path="url(#iris_clip)">
			<rect fill="url(#background_gradient)" height="100%" id="background" width="100%"/>
			<circle cx="50%" cy="50%" fill="url(#glow_gradient)" filter="url(#glow_blur)" id="glow" r="40.625%" stroke="#ffffff" stroke-opacity="0.797414" stroke-width="2"/>
			<circle cx="50%" cy="50%" fill="url(#sea_gradient)" id="sea" r="39.453125%"/>
			<circle clip-path="url(#land_clip)" cx="50%" cy="50%" fill="url(#land_gradient)" id="land" r="39.0625%"/>
		</g>
	</svg>
	<text font-family="georgia" font-size="153.6pt" x="264" y="199.68">Iris-grib</text>
</svg>