<?xml version="1.0" ?>
<svg xmlns="http://www.w3.org/2000/svg" width="588" height="256">
	<svg id="logo_group" viewBox="0 0 720 720" preserveAspectRatio="xMinYMin meet">
		<defs>
			<linearGradient y1="0%" y2="100%" id="background_gradient">
				<stop offset="0" stop-color="#13385d"/>
				<stop offset="1" stop-color="#272b2c"/>
			</linearGradient>
			<clipPath id="land_clip_-30.0">
				<path d="M 606.825859 494.23432  L 605.099049 496.723191  L 620.173524 460.531176  L 630.188327 434.112458  L 629.310614 439.099243  L 623.594331 457.045641  L 615.307596 477.587973  L 611.066728 485.911147  z "/>
				<path d="M 217.662677 406.936961  L 214.167087 406.640953  L 213.468804 406.036049  L 217.319093 403.071749  z "/>
				<path d="M 204.526186 363.489547  L 198.287375 363.117795  L 198.466888 361.012394  L 202.178537 361.383712  z "/>
				<path d="M 164.537252 351.67349  L 163.386434 352.055062  L 160.424283 348.067463  L 166.815909 352.51347  z "/>
				<path d="M 181.031152 347.721653  L 189.91448 351.89784  L 194.736473 358.685478  L 173.022727 352.61326  L 180.55236 353.714428  z "/>
				<path d="M 162.267604 325.043995  L 165.864802 327.995207  L 176.153376 343.800802  L 164.170875 341.205287  L 156.016805 322.753151  L 146.296511 321.6623  L 155.531771 319.546836  z "/>
				<path d="M 170.108847 323.240244  L 168.706836 318.315988  L 170.330507 315.654811  L 171.161455 316.228334  z "/>
				<path d="M 173.608427 309.792316  L 170.165227 309.137816  L 170.576799 307.343844  L 173.945325 308.554292  z "/>
				<path d="M 176.060617 310.777302  L 174.413679 313.852595  L 174.451236 307.70755  z "/>
				<path d="M 566.355697 247.085654  L 566.309213 253.924606  L 563.646161 252.69254  L 564.206701 250.545847  z "/>
				<path d="M 544.063044 261.406885  L 546.124973 262.17969  L 550.945373 259.856842  L 548.270736 263.514395  z "/>
				<path d="M 517.633377 259.90309  L 519.897883 267.457251  L 510.320137 265.862166  L 509.674681 263.442998  z "/>
				<path d="M 493.757518 253.103501  L 499.178404 261.633219  L 497.160832 263.645914  L 491.248892 255.189342  z "/>
				<path d="M 492.797099 248.678419  L 493.465675 252.341942  L 489.712629 249.131842  L 490.512118 245.119914  z "/>
				<path d="M 252.779765 234.553563  L 254.566279 235.650214  L 257.264863 236.188838  L 253.890031 237.616378  L 251.100427 233.263993  z "/>
				<path d="M 262.954978 225.043762  L 258.741596 222.610422  L 257.281779 220.013461  L 261.314587 221.838123  z "/>
				<path d="M 174.022581 161.487163  L 175.735264 157.885445  L 184.017683 149.245349  L 181.231541 153.662973  z "/>
				<path d="M 281.512419 221.79518  L 278.181592 225.114032  L 286.861092 229.25515  L 284.355988 240.694555  L 267.292939 233.039871  L 285.026657 218.409795  z "/>
				<path d="M 198.889668 136.14901  L 198.614803 137.014367  L 190.814471 142.325664  L 196.68802 137.235162  z "/>
				<path d="M 427.847304 216.680507  L 419.525594 219.898567  L 417.548577 211.211145  L 423.44701 204.741797  L 427.219194 206.758807  z "/>
				<path d="M 467.710784 191.63555  L 468.670661 195.104847  L 463.567803 192.28397  L 465.685886 190.010161  z "/>
				<path d="M 234.624531 108.660331  L 232.362528 110.062484  L 231.94078 110.058978  L 231.962895 110.016502  L 233.293713 109.338417  z "/>
				<path d="M 426.447708 189.531524  L 425.974267 194.168698  L 430.679924 192.678767  L 431.158169 199.897852  L 449.431439 210.182235  L 451.771926 216.220425  L 435.764972 225.581652  L 438.482013 218.470582  L 432.460108 217.071765  L 431.820165 210.548539  L 435.220442 207.744622  L 422.29535 198.07435  L 421.852235 190.424187  z "/>
				<path d="M 260.468682 164.257969  L 258.150429 165.685294  L 258.371945 163.964904  L 260.237233 163.082773  z "/>
				<path d="M 258.527659 160.711725  L 255.00502 161.614186  L 254.77672 160.041676  L 257.389424 159.144625  z "/>
				<path d="M 277.010879 91.464483  L 276.569399 91.604836  L 276.664106 91.5574  L 276.664106 91.5574  L 276.837492 91.510941  z "/>
				<path d="M 264.848347 149.718426  L 263.455494 151.103293  L 264.482614 158.754452  L 254.639874 154.45115  z "/>
				<path d="M 390.007219 164.611213  L 393.381362 169.10904  L 384.687236 176.027319  L 375.553902 174.875961  L 377.376857 173.142505  L 372.568254 171.579265  L 375.846998 169.646936  L 371.481861 169.003923  z "/>
				<path d="M 281.610643 150.842762  L 279.971945 150.388647  L 281.275021 148.814665  L 285.384502 148.680974  z "/>
				<path d="M 300.798234 85.09068  L 309.520691 84.159202  L 295.914444 86.617845  L 286.248567 89.275057  L 286.200046 89.002253  L 297.863895 85.876934  L 300.806892 85.244733  L 300.55883 85.154828  z "/>
				<path d="M 268.625529 134.041559  L 266.711657 134.476228  L 267.13174 130.777829  L 271.288858 130.111684  z "/>
				<path d="M 313.827306 84.157887  L 315.25186 83.815011  L 316.21239 83.794879  L 315.415164 84.230696  z "/>
				<path d="M 312.162801 84.579156  L 313.827306 84.157887  L 315.415164 84.230696  L 311.577346 84.969726  z "/>
				<path d="M 267.273375 94.747753  L 269.280162 95.146485  L 282.631804 90.35802  L 274.947225 93.635622  L 288.949292 89.771441  L 287.805551 93.658456  L 262.91273 107.094726  L 266.987533 110.62344  L 253.862905 128.958943  L 261.249632 127.921699  L 258.590455 133.620769  L 264.983149 133.998559  L 260.722845 138.092775  L 269.5152 135.006839  L 272.18376 131.278562  L 280.760747 127.947462  L 274.223595 136.172984  L 268.227582 144.042288  L 280.254849 138.031073  L 282.307988 140.166734  L 276.393777 146.56973  L 242.283128 154.369885  L 228.860785 162.177403  L 224.695641 170.143432  L 232.878757 185.654311  L 225.194085 202.212429  L 231.746683 198.277974  L 235.711808 189.462099  L 247.422151 185.377249  L 250.865995 175.925116  L 256.130529 173.207565  L 262.743467 164.513638  L 269.878301 166.823311  L 273.270648 174.072366  L 269.500571 185.422051  L 280.990905 179.463744  L 277.855979 195.909181  L 285.239656 205.025187  L 285.200842 215.952909  L 269.974707 221.418974  L 253.232435 217.218393  L 233.474741 227.496308  L 254.512811 222.275778  L 249.894672 235.285875  L 262.609129 234.782248  L 262.756149 239.943867  L 242.011672 246.198926  L 241.559752 241.576491  L 248.143472 239.374505  L 240.221571 237.903549  L 225.95934 243.865472  L 224.984736 250.550289  L 205.131338 254.368741  L 203.997073 259.639181  L 199.047622 263.903893  L 202.182192 255.007972  L 196.153116 271.519278  L 172.632935 283.192783  L 163.979817 312.804557  L 162.875886 285.630102  L 140.734108 273.473826  L 132.756563 275.416842  L 119.197662 299.185991  L 116.985561 315.806551  L 124.703052 325.520214  L 131.969943 317.808097  L 140.471343 320.226601  L 128.297036 343.399148  L 142.148453 354.694054  L 137.262999 373.520418  L 142.655985 387.844305  L 148.905706 386.714628  L 157.1799 395.102594  L 177.099357 383.929227  L 175.258533 399.844023  L 183.480926 387.439378  L 189.036096 397.099797  L 214.045101 403.138651  L 232.366346 429.896048  L 258.031504 442.689497  L 262.017591 462.940355  L 289.270273 477.965507  L 311.325786 480.637075  L 332.676117 491.73478  L 336.998108 501.289353  L 318.680912 523.928782  L 310.467377 556.463771  L 282.645665 563.631576  L 280.116994 575.166275  L 266.323765 588.985064  L 248.884321 584.416128  L 258.634825 593.69089  L 242.804371 594.479752  L 245.233599 599.513986  L 238.011624 597.690878  L 245.791835 602.496516  L 240.666881 605.926327  L 249.707433 612.044365  L 247.636376 614.311977  L 253.875528 617.704651  L 251.09489 617.89975  L 238.392782 612.300004  L 227.287004 605.120834  L 226.298433 602.933252  L 221.948153 600.917389  L 219.066556 594.039844  L 216.784736 594.482387  L 189.27434 526.289195  L 164.230164 499.064579  L 141.912245 455.806793  L 145.505581 442.620278  L 141.667986 433.742064  L 154.342848 416.898092  L 152.597333 394.717612  L 148.545537 389.903574  L 143.507397 395.931023  L 131.247636 376.117364  L 129.180791 357.65173  L 103.955048 308.192883  L 121.957177 231.942606  L 105.847168 276.442864  L 106.932886 265.099084  L 124.507986 223.044019  L 128.52801 211.868821  L 146.171096 185.980549  L 173.106319 160.941607  L 168.726607 166.857066  L 175.708636 160.907431  L 183.850562 150.189438  L 215.932527 125.929687  L 238.191102 109.381323  L 237.335064 108.059169  L 243.712394 105.993982  L 238.608208 106.630548  L 238.608203 106.630549  L 243.607837 104.083108  L 244.104073 104.073938  L 247.742341 102.245014  z "/>
				<path d="M 278.762726 115.304097  L 273.33466 121.139358  L 279.862001 118.519901  L 280.381163 119.559672  L 267.187099 129.560577  L 257.782932 123.546205  L 263.725232 118.341224  L 266.32449 120.830384  L 271.034809 114.580028  z "/>
				<path d="M 282.662327 120.032017  L 279.342712 120.741368  L 282.002691 118.675154  L 283.386186 119.247537  z "/>
				<path d="M 300.859323 134.060514  L 296.564956 133.670628  L 297.421505 131.604761  L 301.109591 131.975734  z "/>
				<path d="M 291.99708 129.500878  L 297.719027 129.983753  L 292.920926 134.835317  L 300.183223 139.853095  L 299.898552 148.892521  L 296.033528 149.531048  L 301.677274 158.283271  L 293.669919 163.57446  L 290.273609 157.541343  L 288.34627 168.664451  L 282.07017 165.380076  L 281.903669 172.961428  L 275.189382 158.998475  L 269.544026 158.698956  L 272.832488 155.251959  L 278.898124 157.052582  L 287.399092 150.618667  L 288.029375 140.663271  L 281.684353 132.377465  L 289.71765 128.214639  z "/>
				<path d="M 286.294462 121.383352  L 287.39493 123.023786  L 278.70743 127.684203  L 279.384657 122.782431  z "/>
				<path d="M 369.049481 80.542909  L 371.18687 80.643547  L 374.166724 80.9184  L 370.798827 80.99263  z "/>
				<path d="M 285.649989 127.154878  L 281.23308 127.534592  L 286.7465 124.343968  L 291.931983 126.109502  z "/>
				<path d="M 270.294688 114.166234  L 268.110636 113.242946  L 272.943451 110.260703  L 281.154263 109.240173  L 284.138896 108.049017  L 280.248542 114.051605  z "/>
				<path d="M 359.075538 81.475738  L 360.549686 81.211445  L 364.871219 81.598623  L 364.473596 81.817432  z "/>
				<path d="M 294.705768 122.370948  L 292.748496 122.900545  L 292.766951 121.028792  L 296.888965 120.530194  z "/>
				<path d="M 366.006365 81.90973  L 374.297826 81.698605  L 376.126885 82.312285  L 373.053527 82.734814  z "/>
				<path d="M 299.888894 117.056032  L 292.431078 120.279777  L 293.12762 117.297985  L 296.615264 115.991788  z "/>
				<path d="M 294.334652 113.723678  L 291.665965 115.965078  L 288.317799 110.599222  L 294.453349 110.144866  z "/>
				<path d="M 452.777409 116.997542  L 445.878596 118.594451  L 432.197175 111.793065  L 424.66373 104.106556  L 436.037471 111.355613  L 444.904746 115.727963  z "/>
				<path d="M 303.231185 117.904629  L 299.969869 122.974243  L 304.094245 128.194057  L 295.126635 125.031112  L 300.61278 117.561418  z "/>
				<path d="M 299.954623 108.466491  L 294.569741 109.327989  L 292.597778 107.175045  L 299.191752 107.413516  z "/>
				<path d="M 617.001288 245.778891  L 612.442638 237.794188  L 613.084038 251.959028  L 609.809013 247.75921  L 605.922533 253.168923  L 599.597779 246.124762  L 598.284726 250.30332  L 614.267504 268.80545  L 611.422817 251.038139  L 616.063735 259.114516  L 620.196812 261.986697  L 627.720677 291.874887  L 623.115248 333.679826  L 617.032048 316.473598  L 581.712545 272.78672  L 583.772529 282.388649  L 576.223547 274.98329  L 606.219016 317.022997  L 622.93857 339.139189  L 626.681993 341.597569  L 631.777901 322.563079  L 633.047252 328.901017  L 634.094574 364.112331  L 622.050929 419.854354  L 616.886033 460.566715  L 599.437696 491.563893  L 594.533047 505.549976  L 584.896343 517.877417  L 578.123663 529.370917  L 552.931218 555.728538  L 534.02211 565.559048  L 538.201331 517.928145  L 550.867475 485.998585  L 536.19365 450.303704  L 538.157627 427.509589  L 524.456025 429.152515  L 517.648526 421.542717  L 460.41168 439.986897  L 423.650436 409.453077  L 418.827262 362.365283  L 453.083611 289.679194  L 502.244718 269.938635  L 507.85273 270.390358  L 511.314063 285.25596  L 543.570934 291.320557  L 545.038108 276.671586  L 576.336041 268.157557  L 566.394976 240.830374  L 550.586247 252.302325  L 540.374381 242.366203  L 547.017117 222.83555  L 557.440252 220.699108  L 558.559816 212.309563  L 541.841464 206.527321  L 538.333136 196.175283  L 536.138724 204.788312  L 541.791014 207.437933  L 540.548005 213.295864  L 535.320813 211.337415  L 534.285406 207.487001  L 528.656427 208.562349  L 535.005688 227.798349  L 541.424469 232.580967  L 530.573384 243.274466  L 540.234229 252.602623  L 539.551139 259.847233  L 519.726237 240.589061  L 494.232561 230.194296  L 496.703938 237.596961  L 520.915308 248.314829  L 516.213906 248.878937  L 519.729496 260.351421  L 513.335158 252.106479  L 486.230023 239.734134  L 472.194381 250.024012  L 465.392966 282.865871  L 441.005536 286.236036  L 432.364648 258.102669  L 456.859027 249.033279  L 454.115665 240.181626  L 439.669843 230.671713  L 448.339083 229.142596  L 445.454056 224.543161  L 463.20928 202.836494  L 455.165974 188.923726  L 457.682676 185.310826  L 461.728223 194.321917  L 468.302736 198.955521  L 484.714869 190.481639  L 478.685326 178.331522  L 484.02996 177.558951  L 475.569324 170.956398  L 480.586409 163.624717  L 467.38435 167.464248  L 459.327387 159.468576  L 457.429303 151.131368  L 451.347112 151.412181  L 455.473441 163.299048  L 458.841558 168.370195  L 465.527494 171.40372  L 472.599651 187.434326  L 468.908756 192.371703  L 452.517107 179.198478  L 445.467741 185.22601  L 435.792028 173.433936  L 434.79532 149.449759  L 434.473999 135.619843  L 461.986719 134.328192  L 466.351991 139.71351  L 459.556574 141.74635  L 474.111942 146.269837  L 468.967802 142.760196  L 469.638868 135.460111  L 458.499969 130.212265  L 461.233095 128.997383  L 468.247107 132.331055  L 460.835573 122.673806  L 464.090298 119.352065  L 456.880794 116.409516  L 463.783061 113.579435  L 450.808386 110.838878  L 441.89831 107.283193  L 441.278126 105.470166  L 447.755487 107.269586  L 460.569066 109.578216  L 470.776405 114.130279  L 470.960362 113.485162  L 462.796047 109.430367  L 447.159878 106.485493  L 440.314959 104.282435  L 447.178669 104.847288  L 441.948908 101.384885  L 434.161994 100.597577  L 429.448715 97.365273  L 424.271385 96.771427  L 403.256612 89.548991  L 400.28932 87.09248  L 409.897053 88.074035  L 391.121225 83.002392  L 389.691446 81.232857  L 375.706313 80.113263  L 375.996946 80.548312  L 373.734063 80.607626  L 325.756577 81.154956  L 326.541833 81.480722  L 318.002531 82.809029  L 309.520887 84.159195  L 300.798234 85.09068  L 301.142109 84.998539  L 301.768492 84.857396  L 301.768494 84.857396  L 330.60137 80.290717  L 360 78.75  L 389.39863 80.290717  L 418.475163 84.895987  L 446.91103 92.515355  L 474.394681 103.06534  L 500.625 116.430355  L 525.314602 132.46397  L 548.192983 150.990518  L 569.009482 171.807017  L 587.53603 194.685398  L 603.569645 219.375  L 616.93466 245.605319  z M 567.546628 204.600142  L 571.630298 206.514845  L 578.93682 218.233252  L 583.418134 213.608885  L 573.59749 204.002164  L 571.525979 197.773428  L 567.35499 195.100732  L 570.163716 199.872229  L 557.365964 191.169769  L 556.515914 185.305795  L 550.924495 180.036033  L 554.842526 195.99956  z "/>
				<path d="M 305.44734 117.462773  L 304.557161 116.530545  L 305.672584 115.952129  L 306.475422 116.715009  z "/>
				<path d="M 300.947115 110.838599  L 299.27987 110.443669  L 300.619195 109.448849  L 302.42124 110.588486  z "/>
				<path d="M 408.311209 120.012483  L 408.49786 121.595216  L 406.467407 121.669222  L 404.886291 119.373169  z "/>
				<path d="M 305.319918 109.904599  L 304.19384 109.685016  L 303.962361 109.053063  L 306.209203 108.932651  z "/>
				<path d="M 306.89989 115.795234  L 306.104089 114.918471  L 309.448868 113.481471  L 308.594236 115.280149  z "/>
				<path d="M 306.496501 113.827333  L 305.237131 111.8634  L 306.864461 111.803252  L 309.453252 110.507017  z "/>
				<path d="M 400.252935 90.586077  L 405.454366 92.101869  L 398.587623 91.818984  z "/>
				<path d="M 397.512964 118.115415  L 402.190255 118.750466  L 406.232865 125.21572  L 392.771968 120.088153  z "/>
				<path d="M 398.6014 114.880401  L 400.918255 114.985725  L 394.79707 117.068631  L 396.426234 115.063371  z "/>
				<path d="M 405.639538 107.201586  L 407.649125 108.923426  L 404.386377 109.077956  L 404.956283 106.926987  z "/>
				<path d="M 401.586234 92.227919  L 403.798291 93.714159  L 400.370567 95.079814  L 394.63825 94.15758  z "/>
				<path d="M 317.652805 115.81454  L 316.950358 116.766142  L 309.855979 117.278084  L 315.841399 112.123982  L 322.112038 111.628592  z "/>
				<path d="M 338.98514 113.067435  L 340.958098 114.982579  L 321.947988 119.251781  L 320.167606 121.380313  L 308.106952 125.025796  L 303.319759 121.098352  L 309.861382 118.738596  L 310.301167 120.570761  L 311.944743 117.933445  L 317.354633 116.959275  L 320.09089 114.766465  L 323.360837 115.693697  L 325.120387 110.844977  z "/>
				<path d="M 361.605709 114.905491  L 365.665094 116.677919  L 358.734454 118.155964  L 373.01155 119.678693  L 368.293981 123.102479  L 370.246246 123.08233  L 369.805021 126.896165  L 372.656726 131.717719  L 369.412929 132.98278  L 374.039335 139.700516  L 367.747651 146.219278  L 373.357211 151.391705  L 366.959479 149.148116  L 366.036161 153.140563  L 372.727583 153.207018  L 340.091733 169.11184  L 327.557867 188.483145  L 317.079253 184.319769  L 313.94038 173.070998  L 315.703282 159.948457  L 325.612554 151.742854  L 319.078761 151.794096  L 321.891321 148.046507  L 325.876696 149.568783  L 321.423557 145.085806  L 324.803657 142.540094  L 326.345767 133.180936  L 317.821402 129.173298  L 318.185024 126.000051  L 323.209812 126.339015  L 320.044007 123.034885  L 329.785695 121.695222  L 330.265339 119.555898  L 338.279621 116.771897  L 349.770779 119.019201  L 349.591252 116.501568  z "/>
			</clipPath>
			<radialGradient id="land_gradient">
				<stop offset="0" stop-color="#d5e488"/>
				<stop offset="1" stop-color="#aec928"/>
			</radialGradient>
			<radialGradient id="sea_gradient">
				<stop offset="0" stop-color="#20b0ea"/>
				<stop offset="1" stop-color="#156475"/>
			</radialGradient>
			<radialGradient gradientTransform="scale(1.15, 1.35), translate(-0.1, -0.3)" id="glow_gradient">
				<stop offset="0" stop-color="#0aaea7" stop-opacity="0.85882354"/>
				<stop offset="0.67322218" stop-color="#18685d" stop-opacity="0.74117649"/>
				<stop offset="1" stop-color="#b6df34"/>
			</radialGradient>
			<filter id="glow_blur">
				<feGaussianBlur stdDeviation="10"/>
			</filter>
			<clipPath id="iris_clip">
				<path d="m 350.753702,0.478708 c -26.605915,-0.154944 -45.652522,5.983272 -56.188447,13.328064 -56.021119,39.053326 -43.349270,185.136968 -25.737070,233.799126 20.784031,57.425962 52.748726,113.466146 67.834706,105.619831 19.501258,-7.376825 38.332642,-85.000586 126.229550,-137.358619 68.434380,-40.764506 121.866905,-40.938768 127.691770,-53.386646 2.897143,-8.064043 1.529410,-13.285649 -4.651020,-22.291574 C 579.752705,131.183014 540.912312,68.092779 468.961128,32.649114 420.770700,8.910145 380.907050,0.654114 350.753702,0.478708 Z M 223.742743,82.947434 c -3.121798,-0.061200 -6.670778,0.671544 -11.181132,2.076293 C 202.252133,88.234589 131.406084,106.408138 76.114598,165.233873 6.406733,239.397538 -3.019751,301.901710 4.648364,328.541652 23.761045,394.939116 163.928448,427.791636 214.756898,425.748694 274.739134,423.337903 336.878179,409.654706 334.221998,392.599656 333.368042,371.407774 266.793955,329.158778 245.122675,227.736598 228.250145,148.771800 244.599768,96.896945 234.789898,87.401297 231.062918,84.419222 227.756426,83.026476 223.742743,82.947434 Z m 401.590462,99.804168 c -61.761362,-0.171072 -143.690378,38.157624 -173.647951,62.245987 -47.136982,37.901974 -89.522165,86.217977 -77.542358,98.423748 12.906410,16.632821 91.119650,10.908893 167.114182,79.972056 59.167339,53.770932 75.842071,105.536426 89.251805,107.338824 8.416440,0.317952 12.866119,-2.620174 19.355825,-11.396909 6.489648,-8.776872 53.327887,-65.940718 64.151064,-146.671855 13.645174,-101.780590 -14.755824,-157.998017 -36.315432,-174.954060 -13.433890,-10.565294 -31.780008,-14.900796 -52.367134,-14.957791 z M 404.125423,372.242959 c -4.602593,0.185328 -7.820791,1.609193 -9.261180,4.494794 -11.524637,17.656430 17.983332,91.741140 -22.946429,186.782522 -31.866934,73.996812 -74.993126,106.167499 -72.530359,119.729347 2.304497,8.260344 6.422285,11.662769 16.613597,15.244265 10.191298,3.581496 77.981047,31.343616 156.621391,16.892568 99.144540,-18.218729 142.795771,-63.133337 151.948001,-89.281591 22.810622,-65.172226 -71.644709,-175.766962 -113.943334,-204.579346 -40.557024,-27.625982 -86.557082,-50.086066 -106.501687,-49.282560 z m -38.153491,34.458710 C 342.508234,407.609172 283.856940,452.275690 188.897040,442.596650 110.034878,434.558160 66.707922,402.674918 54.820240,409.254199 c -6.992202,4.787510 -8.898941,9.831586 -9.090014,20.821802 -0.191160,10.990382 -5.132586,85.312584 32.646634,157.112604 47.629512,90.520690 103.009802,118.978337 130.225781,119.773922 67.833202,1.982462 141.792962,-123.801264 155.594441,-173.726186 16.287062,-58.915822 22.725562,-123.408756 5.998003,-126.103039 -1.251828,-0.357624 -2.658924,-0.491904 -4.223153,-0.431640 z"/>
			</clipPath>
		</defs>
		<g clip-path="url(#iris_clip)">
			<rect height="100%" width="100%" fill="url(#background_gradient)" id="background"/>
			<circle cx="50%" cy="50%" r="40.625%" fill="url(#glow_gradient)" filter="url(#glow_blur)" stroke="#ffffff" stroke-width="2" stroke-opacity="0.797414" id="glow"/>
			<circle cx="50%" cy="50%" r="39.453125%" fill="url(#sea_gradient)" id="sea"/>
			<circle cx="50%" cy="50%" r="50%" fill="url(#land_gradient)" clip-path="url(#land_clip_-30.0)" id="land"/>
		</g>
	</svg>
	<text x="264" y="199.68" font-size="153.6pt" font-family="georgia">Iris</text>
</svg>